if (_typeface_js && _typeface_js.loadFace) _typeface_js.loadFace({"glyphs":{"0":{"ha":882,"x_min":68,"x_max":819,"o":"m 330 969 l 557 969 q 792 888 738 969 q 819 751 819 828 l 819 218 q 638 9 819 9 q 575 0 638 0 l 330 0 q 104 73 159 0 q 68 218 68 121 l 68 751 q 213 960 68 932 q 330 969 273 969 m 357 761 l 357 218 l 530 218 l 530 761 l 357 761 z "},"1":{"ha":593,"x_min":68,"x_max":522,"o":"m 68 971 l 440 971 l 440 236 l 522 9 l 522 0 l 68 0 q 149 245 149 221 l 149 744 l 68 971 z "},"2":{"ha":869,"x_min":68,"x_max":805,"o":"m 95 974 l 541 974 q 787 856 753 974 q 805 728 805 787 l 805 655 q 705 410 805 464 q 550 391 632 391 l 359 391 l 359 218 l 486 218 q 787 291 547 218 l 787 0 l 68 0 l 68 373 q 204 583 68 553 q 323 591 264 591 l 505 591 l 505 764 l 414 764 q 95 692 378 764 l 95 974 z "},"3":{"ha":857,"x_min":68,"x_max":785,"o":"m 68 971 l 513 971 q 758 862 758 962 q 785 708 785 862 l 785 671 q 685 508 785 541 l 658 508 l 658 499 q 785 336 785 499 l 785 263 q 667 18 785 54 q 513 0 594 0 l 68 0 l 68 345 l 77 345 q 340 218 310 218 l 486 218 l 486 408 l 313 408 l 313 590 l 486 590 l 486 762 l 358 762 q 68 654 323 762 l 68 971 z "},"4":{"ha":996,"x_min":68,"x_max":922,"o":"m 177 972 l 467 972 q 395 517 395 543 l 549 517 l 549 972 l 922 972 q 840 726 840 751 l 840 517 l 922 517 l 922 309 l 840 309 l 840 236 l 922 0 l 467 0 l 467 9 l 549 236 l 549 309 l 68 309 l 177 972 z "},"5":{"ha":836,"x_min":68,"x_max":776,"o":"m 68 971 l 739 971 l 739 690 l 730 690 q 476 762 505 762 l 358 762 l 358 599 l 513 599 q 749 499 749 589 q 776 354 776 499 l 776 227 q 667 18 776 64 q 513 0 594 0 l 68 0 l 68 290 q 340 218 309 218 l 486 218 l 486 399 l 68 399 l 68 971 z "},"6":{"ha":879,"x_min":68,"x_max":814,"o":"m 341 974 l 778 974 l 778 692 l 768 692 q 486 764 543 764 l 368 764 l 368 601 l 595 601 q 805 473 769 601 q 814 355 814 414 l 814 255 q 760 55 814 100 q 541 0 703 0 l 350 0 q 104 82 159 0 q 68 282 68 157 l 68 719 q 159 947 68 885 q 341 974 239 974 m 368 401 l 368 218 l 523 218 l 523 401 l 368 401 z "},"7":{"ha":920,"x_min":68,"x_max":848,"o":"m 68 971 l 848 971 q 567 0 604 140 l 250 0 l 486 762 l 376 762 q 68 626 323 762 l 68 971 z "},"8":{"ha":861,"x_min":68,"x_max":796,"o":"m 332 974 l 532 974 q 787 846 745 974 q 796 719 796 769 l 796 646 q 669 510 780 510 l 669 500 q 796 355 782 500 l 796 255 q 659 18 796 18 q 523 0 659 0 l 332 0 q 95 82 150 0 q 68 218 68 142 l 68 382 q 186 500 93 500 l 186 510 q 68 601 68 510 l 68 755 q 214 965 68 937 q 332 974 273 974 m 341 764 l 341 591 l 523 591 l 523 764 l 341 764 m 341 410 l 341 218 l 523 218 l 523 410 l 341 410 z "},"9":{"ha":879,"x_min":68,"x_max":812,"o":"m 331 971 l 567 971 q 803 844 750 971 q 812 708 812 753 l 812 263 q 694 18 812 52 q 540 0 621 0 l 86 0 l 86 290 q 331 218 297 218 l 513 218 l 513 372 l 295 372 q 77 517 105 372 q 68 635 68 577 l 68 690 q 240 962 68 962 q 331 971 243 971 m 368 762 l 368 572 l 513 572 l 513 762 l 368 762 z "},"\u0000":{"ha":0,"x_min":0,"x_max":0,"o":""}," ":{"ha":345,"x_min":0,"x_max":0,"o":""},"!":{"ha":456,"x_min":0,"x_max":0,"o":""},"\"":{"ha":456,"x_min":0,"x_max":0,"o":""},"#":{"ha":906,"x_min":0,"x_max":0,"o":""},"$":{"ha":688,"x_min":0,"x_max":0,"o":""},"%":{"ha":1092,"x_min":0,"x_max":0,"o":""},"&":{"ha":1141,"x_min":0,"x_max":0,"o":""},"'":{"ha":235,"x_min":0,"x_max":0,"o":""},"(":{"ha":514,"x_min":0,"x_max":0,"o":""},")":{"ha":514,"x_min":0,"x_max":0,"o":""},"*":{"ha":694,"x_min":0,"x_max":0,"o":""},"+":{"ha":688,"x_min":0,"x_max":0,"o":""},",":{"ha":378,"x_min":0,"x_max":0,"o":""},"-":{"ha":454,"x_min":0,"x_max":0,"o":""},".":{"ha":378,"x_min":0,"x_max":0,"o":""},"/":{"ha":386,"x_min":0,"x_max":0,"o":""},":":{"ha":378,"x_min":0,"x_max":0,"o":""},";":{"ha":378,"x_min":0,"x_max":0,"o":""},"<":{"ha":688,"x_min":0,"x_max":0,"o":""},"=":{"ha":688,"x_min":0,"x_max":0,"o":""},">":{"ha":688,"x_min":0,"x_max":0,"o":""},"?":{"ha":507,"x_min":0,"x_max":0,"o":""},"@":{"ha":1369,"x_min":0,"x_max":0,"o":""},"A":{"ha":993,"x_min":0,"x_max":925,"o":"m 229 971 l 705 971 q 925 0 843 208 l 568 0 l 568 9 l 541 238 l 376 238 q 348 0 348 29 l 0 0 l 0 9 q 229 971 83 198 m 458 760 q 403 421 403 467 l 522 421 q 467 760 467 705 l 458 760 z "},"B":{"ha":902,"x_min":0,"x_max":843,"o":"m 0 971 l 669 971 q 843 788 843 945 l 843 623 q 715 513 843 529 l 715 504 q 843 376 828 504 l 843 220 q 605 0 843 0 l 0 0 l 0 9 q 83 220 83 190 l 83 742 q 0 971 83 786 m 385 760 l 385 595 l 541 595 l 541 760 l 385 760 m 385 412 l 385 211 l 541 211 l 541 412 l 385 412 z "},"C":{"ha":758,"x_min":0,"x_max":690,"o":"m 272 971 l 690 971 l 690 654 q 408 762 423 762 l 300 762 l 300 209 l 408 209 q 690 345 435 209 l 690 0 l 254 0 q 9 118 51 0 q 0 245 0 195 l 0 744 q 100 944 0 899 q 272 971 155 971 z "},"D":{"ha":909,"x_min":0,"x_max":844,"o":"m 0 971 l 572 971 q 817 871 817 958 q 844 762 840 871 l 844 218 q 699 9 844 35 q 590 0 652 0 l 0 0 q 91 236 91 214 l 91 735 q 0 971 91 752 m 381 762 l 381 209 l 553 209 l 553 762 l 381 762 z "},"E":{"ha":813,"x_min":0,"x_max":753,"o":"m 0 971 l 744 971 l 744 654 l 472 762 l 372 762 l 372 590 l 563 590 l 563 408 l 372 408 l 372 209 l 472 209 q 753 336 490 209 l 753 0 l 0 0 q 81 236 81 203 l 81 735 q 0 971 81 763 z "},"F":{"ha":831,"x_min":0,"x_max":762,"o":"m 0 974 l 762 974 l 762 661 q 477 762 502 762 l 376 762 l 376 597 l 560 597 l 560 404 l 376 404 l 376 239 q 477 0 376 217 l 0 0 l 0 9 q 83 239 83 195 l 83 753 q 0 974 83 774 z "},"G":{"ha":816,"x_min":0,"x_max":744,"o":"m 281 971 l 735 971 l 735 671 q 435 762 466 762 l 290 762 l 290 209 l 472 209 l 472 309 q 390 545 472 331 l 744 545 l 744 0 l 263 0 q 27 109 55 0 q 0 281 3 138 l 0 690 q 81 935 0 878 q 281 971 157 971 z "},"H":{"ha":993,"x_min":0,"x_max":926,"o":"m 0 971 l 372 971 l 372 599 l 553 599 l 553 971 l 926 971 l 926 962 l 844 735 l 844 236 l 926 0 l 553 0 l 553 381 l 372 381 l 372 0 l 0 0 l 0 9 l 81 236 l 81 735 l 0 962 l 0 971 z "},"I":{"ha":527,"x_min":0,"x_max":464,"o":"m 0 974 l 464 974 l 464 965 q 382 755 382 778 l 382 218 q 464 0 382 199 l 0 0 l 0 9 q 82 237 82 193 l 82 737 q 0 974 82 765 z "},"J":{"ha":813,"x_min":0,"x_max":744,"o":"m 272 971 l 744 971 l 744 962 l 663 735 l 663 218 q 427 0 663 0 l 254 0 q 0 199 0 0 l 0 381 l 9 381 l 263 209 l 372 209 l 372 735 l 272 971 z "},"K":{"ha":1008,"x_min":0,"x_max":935,"o":"m 0 971 l 381 971 l 381 608 q 590 971 397 608 l 935 971 l 935 962 q 644 490 644 520 l 935 18 l 935 0 l 599 0 q 390 345 554 43 l 381 345 l 381 0 l 0 0 q 81 245 81 221 l 81 726 q 0 971 81 752 z "},"L":{"ha":823,"x_min":0,"x_max":752,"o":"m 0 972 l 468 972 q 376 724 376 770 l 376 211 l 450 211 q 743 385 480 211 l 752 385 l 752 0 l 0 0 l 0 9 q 83 220 83 193 l 83 743 q 0 972 83 787 z "},"M":{"ha":1231,"x_min":0,"x_max":1171,"o":"m 0 971 l 354 971 l 599 563 l 617 563 q 835 971 753 852 l 1171 971 l 1089 744 l 1089 227 l 1171 0 l 808 0 l 808 490 l 799 490 q 590 109 606 111 q 363 490 365 475 l 354 490 l 354 0 l 0 0 l 0 9 q 81 218 81 189 l 81 753 q 0 971 81 768 z "},"N":{"ha":1044,"x_min":0,"x_max":989,"o":"m 0 971 l 348 971 q 614 522 381 950 l 623 522 l 623 971 l 989 971 q 907 742 907 781 l 907 0 l 623 0 l 366 458 l 357 458 l 357 0 l 0 0 l 0 9 l 83 238 l 83 724 q 0 971 83 747 z "},"O":{"ha":854,"x_min":0,"x_max":788,"o":"m 211 971 l 568 971 q 788 751 788 971 l 788 220 q 559 0 788 0 l 256 0 q 18 138 18 0 q 0 275 3 138 l 0 696 q 83 935 13 935 q 211 971 125 971 m 302 760 l 302 211 l 495 211 l 495 760 l 302 760 z "},"P":{"ha":895,"x_min":0,"x_max":825,"o":"m 0 971 l 605 971 q 806 852 779 971 q 825 705 825 812 l 825 650 q 751 421 825 477 q 595 385 696 385 l 376 385 l 376 248 q 467 0 376 210 l 0 0 q 83 248 83 223 l 83 742 l 0 971 m 376 760 l 376 559 l 532 559 l 532 760 l 376 760 z "},"Q":{"ha":854,"x_min":0,"x_max":785,"o":"m 219 971 l 566 971 q 776 844 740 971 q 785 725 785 783 l 785 232 q 575 3 785 3 l 575 -115 l 292 3 l 256 3 q 18 122 45 3 q 0 268 0 161 l 0 734 q 219 971 0 971 m 301 761 l 301 214 l 484 214 l 484 761 l 301 761 z "},"R":{"ha":968,"x_min":0,"x_max":907,"o":"m 0 971 l 623 971 q 825 770 825 971 l 825 568 q 678 421 825 466 q 907 0 869 83 l 587 0 l 385 357 l 376 357 l 376 0 l 0 0 l 83 229 l 83 733 q 0 971 83 766 m 376 760 l 376 568 l 532 568 l 532 760 l 376 760 z "},"S":{"ha":798,"x_min":0,"x_max":724,"o":"m 211 971 l 696 971 l 696 678 q 421 760 450 760 l 293 760 l 293 595 l 504 595 q 724 394 724 595 l 724 201 q 587 9 724 40 q 476 0 539 0 l 9 0 l 9 311 l 18 311 q 321 211 274 211 l 439 211 l 439 394 l 266 394 q 0 595 0 394 l 0 779 q 211 971 0 971 z "},"T":{"ha":902,"x_min":0,"x_max":832,"o":"m 0 969 l 832 969 l 832 622 l 823 622 q 594 759 628 759 l 567 759 l 567 238 q 649 0 567 199 l 192 0 l 192 9 q 265 220 265 203 l 265 759 l 220 759 l 9 622 l 0 622 l 0 969 z "},"U":{"ha":972,"x_min":0,"x_max":907,"o":"m 0 971 l 376 971 l 376 211 l 532 211 l 532 971 l 907 971 l 825 742 l 825 220 q 595 0 825 0 l 330 0 q 92 156 92 0 q 83 220 83 156 l 83 742 l 0 971 z "},"V":{"ha":1036,"x_min":0,"x_max":980,"o":"m 635 971 q 926 962 831 962 l 980 962 q 808 481 835 708 q 681 0 762 342 l 281 0 q 127 681 260 0 q 0 962 109 753 l 363 962 l 481 309 l 490 309 l 635 971 z "},"W":{"ha":1485,"x_min":0,"x_max":1420,"o":"m 382 974 q 446 355 446 412 q 583 901 464 355 q 610 965 591 965 l 828 965 l 974 346 l 983 346 l 1038 974 q 1356 965 1252 965 l 1420 965 q 1301 610 1301 744 l 1192 0 l 838 0 l 719 537 l 710 537 l 583 0 l 237 0 l 237 9 q 45 856 97 856 q 0 965 0 958 l 45 965 q 382 974 151 965 z "},"X":{"ha":1069,"x_min":0,"x_max":1006,"o":"m 0 969 l 402 969 l 512 677 l 521 677 l 640 969 l 942 969 q 713 494 942 942 q 932 110 856 155 q 1006 9 932 102 l 1006 0 l 594 0 q 467 283 487 279 q 347 0 467 270 l 27 0 l 27 9 l 283 475 q 73 869 169 804 q 0 969 73 881 z "},"Y":{"ha":1003,"x_min":0,"x_max":935,"o":"m 0 971 l 348 971 q 467 623 370 971 q 595 971 486 623 l 935 971 l 935 962 q 623 311 776 726 l 623 238 q 705 0 623 213 l 238 0 l 321 220 l 321 321 q 0 962 154 751 l 0 971 z "},"Z":{"ha":838,"x_min":0,"x_max":788,"o":"m 64 971 l 788 971 l 788 962 q 650 632 788 803 l 376 211 l 513 211 l 779 311 l 779 0 l 0 0 q 110 311 37 239 l 403 751 l 403 760 l 311 760 q 73 687 290 760 l 64 687 l 64 971 z "},"[":{"ha":514,"x_min":0,"x_max":0,"o":""},"\\":{"ha":386,"x_min":0,"x_max":0,"o":""},"]":{"ha":514,"x_min":0,"x_max":0,"o":""},"^":{"ha":688,"x_min":0,"x_max":0,"o":""},"_":{"ha":694,"x_min":0,"x_max":0,"o":""},"`":{"ha":694,"x_min":0,"x_max":0,"o":""},"a":{"ha":730,"x_min":0,"x_max":663,"o":"m 164 695 l 505 695 q 663 0 604 149 l 407 0 l 407 7 l 387 170 l 269 170 q 249 0 249 21 l 0 0 l 0 7 q 164 695 59 142 m 328 545 q 288 302 288 334 l 374 302 q 334 545 334 505 l 328 545 z "},"b":{"ha":666,"x_min":0,"x_max":604,"o":"m 0 695 l 479 695 q 604 564 604 677 l 604 446 q 511 368 604 378 l 511 361 q 604 269 593 361 l 604 157 q 433 0 604 0 l 0 0 l 0 7 q 59 157 59 136 l 59 531 q 0 695 59 563 m 275 545 l 275 427 l 387 427 l 387 545 l 275 545 m 275 295 l 275 151 l 387 151 l 387 295 l 275 295 z "},"c":{"ha":559,"x_min":0,"x_max":494,"o":"m 195 695 l 494 695 l 494 468 q 292 546 303 546 l 214 546 l 214 149 l 292 149 q 494 247 312 149 l 494 0 l 182 0 q 7 85 37 0 q 0 176 0 140 l 0 533 q 71 675 0 644 q 195 695 111 695 z "},"d":{"ha":674,"x_min":0,"x_max":604,"o":"m 0 695 l 410 695 q 585 624 585 686 q 604 546 601 624 l 604 156 q 500 7 604 25 q 422 0 467 0 l 0 0 q 65 169 65 153 l 65 526 q 0 695 65 538 m 273 546 l 273 149 l 396 149 l 396 546 l 273 546 z "},"e":{"ha":598,"x_min":0,"x_max":539,"o":"m 0 695 l 533 695 l 533 468 l 338 546 l 267 546 l 267 422 l 403 422 l 403 292 l 267 292 l 267 149 l 338 149 q 539 240 351 149 l 539 0 l 0 0 q 58 169 58 145 l 58 526 q 0 695 58 546 z "},"f":{"ha":608,"x_min":0,"x_max":545,"o":"m 0 695 l 545 695 l 545 472 q 341 545 358 545 l 269 545 l 269 427 l 400 427 l 400 288 l 269 288 l 269 170 q 341 0 269 155 l 0 0 l 0 7 q 59 170 59 139 l 59 538 q 0 695 59 552 z "},"g":{"ha":600,"x_min":0,"x_max":531,"o":"m 201 693 l 525 693 l 525 479 q 311 544 332 544 l 208 544 l 208 149 l 337 149 l 337 220 q 279 389 337 237 l 531 389 l 531 0 l 188 0 q 20 78 39 0 q 0 201 2 98 l 0 492 q 58 667 0 627 q 201 693 112 693 z "},"h":{"ha":732,"x_min":0,"x_max":661,"o":"m 0 693 l 266 693 l 266 427 l 395 427 l 395 693 l 661 693 l 661 686 l 602 525 l 602 168 l 661 0 l 395 0 l 395 272 l 266 272 l 266 0 l 0 0 l 0 7 l 58 168 l 58 525 l 0 686 l 0 693 z "},"i":{"ha":390,"x_min":0,"x_max":332,"o":"m 0 698 l 332 698 l 332 691 q 274 541 274 557 l 274 157 q 332 0 274 142 l 0 0 l 0 7 q 59 170 59 138 l 59 528 q 0 698 59 548 z "},"j":{"ha":595,"x_min":0,"x_max":533,"o":"m 195 695 l 533 695 l 533 688 l 474 526 l 474 156 q 305 0 474 0 l 182 0 q 0 143 0 0 l 0 273 l 7 273 l 189 149 l 267 149 l 267 526 l 195 695 z "},"k":{"ha":732,"x_min":0,"x_max":669,"o":"m 0 695 l 273 695 l 273 435 q 422 695 284 435 l 669 695 l 669 688 q 461 351 461 372 l 669 13 l 669 0 l 429 0 q 279 247 397 31 l 273 247 l 273 0 l 0 0 q 58 176 58 158 l 58 519 q 0 695 58 538 z "},"l":{"ha":598,"x_min":0,"x_max":538,"o":"m 0 695 l 334 695 q 269 518 269 551 l 269 151 l 321 151 q 531 275 343 151 l 538 275 l 538 0 l 0 0 l 0 7 q 59 157 59 138 l 59 531 q 0 695 59 563 z "},"m":{"ha":904,"x_min":0,"x_max":838,"o":"m 0 695 l 254 695 l 429 403 l 441 403 q 597 695 538 610 l 838 695 l 780 533 l 780 162 l 838 0 l 578 0 l 578 351 l 572 351 q 422 78 433 79 q 260 351 261 340 l 254 351 l 254 0 l 0 0 l 0 7 q 58 156 58 135 l 58 539 q 0 695 58 550 z "},"n":{"ha":770,"x_min":0,"x_max":708,"o":"m 0 695 l 249 695 q 439 374 273 680 l 446 374 l 446 695 l 708 695 q 649 531 649 559 l 649 0 l 446 0 l 262 328 l 256 328 l 256 0 l 0 0 l 0 7 l 59 170 l 59 518 q 0 695 59 535 z "},"o":{"ha":628,"x_min":0,"x_max":564,"o":"m 151 695 l 407 695 q 564 538 564 695 l 564 157 q 400 0 564 0 l 184 0 q 13 98 13 0 q 0 197 2 98 l 0 498 q 59 669 9 669 q 151 695 89 695 m 216 545 l 216 151 l 354 151 l 354 545 l 216 545 z "},"p":{"ha":654,"x_min":0,"x_max":589,"o":"m 0 693 l 431 693 q 575 608 556 693 q 589 503 589 580 l 589 465 q 536 301 589 340 q 425 275 496 275 l 268 275 l 268 176 q 334 0 268 150 l 0 0 q 59 176 59 159 l 59 530 l 0 693 m 268 543 l 268 399 l 379 399 l 379 543 l 268 543 z "},"q":{"ha":636,"x_min":0,"x_max":564,"o":"m 157 695 l 406 695 q 557 604 532 695 q 564 518 564 560 l 564 164 q 413 1 564 1 l 413 -85 l 210 1 l 184 1 q 13 85 32 1 q 0 191 0 114 l 0 525 q 157 695 0 695 m 216 545 l 216 151 l 347 151 l 347 545 l 216 545 z "},"r":{"ha":702,"x_min":0,"x_max":649,"o":"m 0 695 l 446 695 q 590 551 590 695 l 590 407 q 486 302 590 334 q 649 0 622 60 l 420 0 l 275 256 l 269 256 l 269 0 l 0 0 l 59 164 l 59 525 q 0 695 59 549 m 269 545 l 269 407 l 380 407 l 380 545 l 269 545 z "},"s":{"ha":575,"x_min":0,"x_max":518,"o":"m 151 695 l 498 695 l 498 486 q 302 545 321 545 l 210 545 l 210 427 l 361 427 q 518 282 518 427 l 518 144 q 420 7 518 29 q 341 0 386 0 l 7 0 l 7 223 l 13 223 q 229 151 196 151 l 315 151 l 315 282 l 190 282 q 0 427 0 282 l 0 557 q 151 695 0 695 z "},"t":{"ha":664,"x_min":0,"x_max":595,"o":"m 0 693 l 595 693 l 595 445 l 589 445 q 425 543 450 543 l 406 543 l 406 170 q 465 0 406 142 l 137 0 l 137 7 q 190 157 190 146 l 190 543 l 157 543 l 7 445 l 0 445 l 0 693 z "},"u":{"ha":709,"x_min":0,"x_max":649,"o":"m 0 695 l 269 695 l 269 151 l 380 151 l 380 695 l 649 695 l 590 531 l 590 157 q 427 0 590 0 l 236 0 q 66 111 66 0 q 59 157 59 111 l 59 531 l 0 695 z "},"v":{"ha":762,"x_min":0,"x_max":702,"o":"m 455 695 q 663 688 595 688 l 702 688 q 578 345 597 507 q 487 0 546 245 l 201 0 q 91 487 186 0 q 0 688 78 539 l 260 688 l 345 221 l 351 221 l 455 695 z "},"w":{"ha":1072,"x_min":0,"x_max":1010,"o":"m 272 693 q 317 253 317 294 q 414 642 330 253 q 434 686 421 686 l 589 686 l 693 246 l 700 246 l 739 693 q 965 686 891 686 l 1010 686 q 926 434 926 530 l 848 0 l 596 0 l 512 382 l 505 382 l 414 0 l 168 0 l 168 7 q 33 609 69 609 q 0 686 0 682 l 33 686 q 272 693 108 686 z "},"x":{"ha":785,"x_min":0,"x_max":720,"o":"m 0 693 l 288 693 l 366 484 l 373 484 l 458 693 l 673 693 q 510 353 673 673 q 667 79 612 111 q 720 7 667 73 l 720 0 l 425 0 q 334 203 349 199 q 248 0 334 193 l 20 0 l 20 7 l 203 340 q 52 621 121 575 q 0 693 52 630 z "},"y":{"ha":730,"x_min":0,"x_max":667,"o":"m 0 693 l 248 693 q 334 445 264 693 q 425 693 347 445 l 667 693 l 667 686 q 445 222 554 518 l 445 170 q 503 0 445 152 l 170 0 l 229 157 l 229 229 q 0 686 110 536 l 0 693 z "},"z":{"ha":626,"x_min":0,"x_max":566,"o":"m 46 698 l 566 698 l 566 691 q 467 454 566 577 l 270 151 l 369 151 l 559 224 l 559 0 l 0 0 q 79 224 26 172 l 290 540 l 290 547 l 224 547 q 53 494 208 547 l 46 494 l 46 698 z "},"{":{"ha":688,"x_min":0,"x_max":0,"o":""},"|":{"ha":688,"x_min":0,"x_max":0,"o":""},"}":{"ha":688,"x_min":0,"x_max":0,"o":""},"~":{"ha":688,"x_min":0,"x_max":0,"o":""},"¡":{"ha":456,"x_min":0,"x_max":0,"o":""},"¢":{"ha":772,"x_min":0,"x_max":0,"o":""},"£":{"ha":688,"x_min":0,"x_max":0,"o":""},"¤":{"ha":688,"x_min":0,"x_max":0,"o":""},"¥":{"ha":856,"x_min":0,"x_max":0,"o":""},"¦":{"ha":688,"x_min":0,"x_max":0,"o":""},"§":{"ha":688,"x_min":0,"x_max":0,"o":""},"¨":{"ha":694,"x_min":0,"x_max":0,"o":""},"©":{"ha":1135,"x_min":0,"x_max":0,"o":""},"ª":{"ha":439,"x_min":0,"x_max":0,"o":""},"«":{"ha":640,"x_min":0,"x_max":0,"o":""},"¬":{"ha":688,"x_min":0,"x_max":0,"o":""},"®":{"ha":1135,"x_min":0,"x_max":0,"o":""},"¯":{"ha":454,"x_min":0,"x_max":0,"o":""},"°":{"ha":457,"x_min":0,"x_max":0,"o":""},"±":{"ha":688,"x_min":0,"x_max":0,"o":""},"²":{"ha":688,"x_min":0,"x_max":0,"o":""},"³":{"ha":688,"x_min":0,"x_max":0,"o":""},"´":{"ha":694,"x_min":0,"x_max":0,"o":""},"µ":{"ha":800,"x_min":0,"x_max":0,"o":""},"¶":{"ha":694,"x_min":0,"x_max":0,"o":""},"·":{"ha":345,"x_min":0,"x_max":0,"o":""},"¸":{"ha":694,"x_min":0,"x_max":0,"o":""},"¹":{"ha":688,"x_min":0,"x_max":0,"o":""},"º":{"ha":487,"x_min":0,"x_max":0,"o":""},"»":{"ha":640,"x_min":0,"x_max":0,"o":""},"¼":{"ha":1158,"x_min":0,"x_max":0,"o":""},"½":{"ha":1332,"x_min":0,"x_max":0,"o":""},"¾":{"ha":1158,"x_min":0,"x_max":0,"o":""},"¿":{"ha":507,"x_min":0,"x_max":0,"o":""},"À":{"ha":1044,"x_min":0,"x_max":0,"o":""},"Á":{"ha":1044,"x_min":0,"x_max":0,"o":""},"Â":{"ha":1044,"x_min":0,"x_max":0,"o":""},"Ã":{"ha":1044,"x_min":0,"x_max":0,"o":""},"Ä":{"ha":1044,"x_min":0,"x_max":0,"o":""},"Å":{"ha":1044,"x_min":0,"x_max":0,"o":""},"Æ":{"ha":1436,"x_min":0,"x_max":0,"o":""},"Ç":{"ha":949,"x_min":0,"x_max":0,"o":""},"È":{"ha":781,"x_min":0,"x_max":0,"o":""},"É":{"ha":781,"x_min":0,"x_max":0,"o":""},"Ê":{"ha":781,"x_min":0,"x_max":0,"o":""},"Ë":{"ha":781,"x_min":0,"x_max":0,"o":""},"Ì":{"ha":446,"x_min":0,"x_max":0,"o":""},"Í":{"ha":446,"x_min":0,"x_max":0,"o":""},"Î":{"ha":446,"x_min":0,"x_max":0,"o":""},"Ï":{"ha":446,"x_min":0,"x_max":0,"o":""},"Ð":{"ha":1029,"x_min":0,"x_max":0,"o":""},"Ñ":{"ha":1054,"x_min":0,"x_max":0,"o":""},"Ò":{"ha":1095,"x_min":0,"x_max":0,"o":""},"Ó":{"ha":1095,"x_min":0,"x_max":0,"o":""},"Ô":{"ha":1095,"x_min":0,"x_max":0,"o":""},"Õ":{"ha":1095,"x_min":0,"x_max":0,"o":""},"Ö":{"ha":1095,"x_min":0,"x_max":0,"o":""},"×":{"ha":688,"x_min":0,"x_max":0,"o":""},"Ø":{"ha":1095,"x_min":0,"x_max":0,"o":""},"Ù":{"ha":1018,"x_min":0,"x_max":0,"o":""},"Ú":{"ha":1018,"x_min":0,"x_max":0,"o":""},"Û":{"ha":1018,"x_min":0,"x_max":0,"o":""},"Ü":{"ha":1018,"x_min":0,"x_max":0,"o":""},"Ý":{"ha":836,"x_min":0,"x_max":0,"o":""},"Þ":{"ha":760,"x_min":0,"x_max":0,"o":""},"ß":{"ha":848,"x_min":0,"x_max":0,"o":""},"à":{"ha":625,"x_min":0,"x_max":0,"o":""},"á":{"ha":625,"x_min":0,"x_max":0,"o":""},"â":{"ha":625,"x_min":0,"x_max":0,"o":""},"ã":{"ha":625,"x_min":0,"x_max":0,"o":""},"ä":{"ha":625,"x_min":0,"x_max":0,"o":""},"å":{"ha":625,"x_min":0,"x_max":0,"o":""},"æ":{"ha":986,"x_min":0,"x_max":0,"o":""},"ç":{"ha":614,"x_min":0,"x_max":0,"o":""},"è":{"ha":616,"x_min":0,"x_max":0,"o":""},"é":{"ha":616,"x_min":0,"x_max":0,"o":""},"ê":{"ha":616,"x_min":0,"x_max":0,"o":""},"ë":{"ha":616,"x_min":0,"x_max":0,"o":""},"ì":{"ha":349,"x_min":0,"x_max":0,"o":""},"í":{"ha":349,"x_min":0,"x_max":0,"o":""},"î":{"ha":349,"x_min":0,"x_max":0,"o":""},"ï":{"ha":349,"x_min":0,"x_max":0,"o":""},"ð":{"ha":772,"x_min":0,"x_max":0,"o":""},"ñ":{"ha":751,"x_min":0,"x_max":0,"o":""},"ò":{"ha":685,"x_min":0,"x_max":0,"o":""},"ó":{"ha":685,"x_min":0,"x_max":0,"o":""},"ô":{"ha":685,"x_min":0,"x_max":0,"o":""},"õ":{"ha":685,"x_min":0,"x_max":0,"o":""},"ö":{"ha":685,"x_min":0,"x_max":0,"o":""},"÷":{"ha":688,"x_min":0,"x_max":0,"o":""},"ø":{"ha":685,"x_min":0,"x_max":0,"o":""},"ù":{"ha":718,"x_min":0,"x_max":0,"o":""},"ú":{"ha":718,"x_min":0,"x_max":0,"o":""},"û":{"ha":718,"x_min":0,"x_max":0,"o":""},"ü":{"ha":718,"x_min":0,"x_max":0,"o":""},"ý":{"ha":589,"x_min":0,"x_max":0,"o":""},"þ":{"ha":685,"x_min":0,"x_max":0,"o":""},"ÿ":{"ha":589,"x_min":0,"x_max":0,"o":""},"ı":{"ha":349,"x_min":0,"x_max":0,"o":""},"ˆ":{"ha":694,"x_min":0,"x_max":0,"o":""},"ˇ":{"ha":694,"x_min":0,"x_max":0,"o":""},"ˉ":{"ha":694,"x_min":0,"x_max":0,"o":""},"˘":{"ha":694,"x_min":0,"x_max":0,"o":""},"˙":{"ha":694,"x_min":0,"x_max":0,"o":""},"˚":{"ha":694,"x_min":0,"x_max":0,"o":""},"˛":{"ha":694,"x_min":0,"x_max":0,"o":""},"˜":{"ha":694,"x_min":0,"x_max":0,"o":""},"˝":{"ha":694,"x_min":0,"x_max":0,"o":""},"–":{"ha":751,"x_min":0,"x_max":0,"o":""},"—":{"ha":1389,"x_min":0,"x_max":0,"o":""},"‘":{"ha":378,"x_min":0,"x_max":0,"o":""},"’":{"ha":378,"x_min":0,"x_max":0,"o":""},"‚":{"ha":378,"x_min":0,"x_max":0,"o":""},"“":{"ha":617,"x_min":0,"x_max":0,"o":""},"”":{"ha":617,"x_min":0,"x_max":0,"o":""},"„":{"ha":617,"x_min":0,"x_max":0,"o":""},"†":{"ha":688,"x_min":0,"x_max":0,"o":""},"‡":{"ha":688,"x_min":0,"x_max":0,"o":""},"•":{"ha":694,"x_min":0,"x_max":0,"o":""},"…":{"ha":1389,"x_min":0,"x_max":0,"o":""},"‹":{"ha":428,"x_min":0,"x_max":0,"o":""},"›":{"ha":428,"x_min":0,"x_max":0,"o":""},"⁄":{"ha":232,"x_min":0,"x_max":0,"o":""},"₣":{"ha":688,"x_min":0,"x_max":0,"o":""},"₤":{"ha":688,"x_min":0,"x_max":0,"o":""},"₧":{"ha":1375,"x_min":0,"x_max":0,"o":""},"€":{"ha":688,"x_min":0,"x_max":0,"o":""},"№":{"ha":1540,"x_min":0,"x_max":0,"o":""},"™":{"ha":1015,"x_min":0,"x_max":0,"o":""},"∂":{"ha":688,"x_min":0,"x_max":0,"o":""},"∆":{"ha":733,"x_min":0,"x_max":0,"o":""},"∏":{"ha":1027,"x_min":0,"x_max":0,"o":""},"∑":{"ha":818,"x_min":0,"x_max":0,"o":""},"−":{"ha":688,"x_min":0,"x_max":0,"o":""},"√":{"ha":688,"x_min":0,"x_max":0,"o":""},"∞":{"ha":688,"x_min":0,"x_max":0,"o":""},"∫":{"ha":451,"x_min":0,"x_max":0,"o":""},"≈":{"ha":688,"x_min":0,"x_max":0,"o":""},"≤":{"ha":688,"x_min":0,"x_max":0,"o":""},"≥":{"ha":688,"x_min":0,"x_max":0,"o":""},"":{"ha":728,"x_min":0,"x_max":0,"o":""},"":{"ha":733,"x_min":0,"x_max":0,"o":""},"А":{"ha":993,"x_min":0,"x_max":925,"o":"m 229 971 l 705 971 q 925 0 843 208 l 568 0 l 568 9 l 541 238 l 376 238 q 348 0 348 29 l 0 0 l 0 9 q 229 971 83 198 m 458 760 q 403 421 403 467 l 522 421 q 467 760 467 705 l 458 760 z "},"Б":{"ha":886,"x_min":0,"x_max":825,"o":"m 532 214 l 376 214 l 376 416 l 532 416 l 532 214 m 751 550 q 595 587 696 587 l 376 587 l 376 762 l 516 762 q 816 671 547 762 l 816 971 l 0 971 q 83 724 83 748 l 83 229 l 0 0 l 605 0 q 806 119 779 0 q 825 266 825 159 l 825 321 q 751 550 825 494 z "},"В":{"ha":902,"x_min":0,"x_max":843,"o":"m 0 971 l 669 971 q 843 788 843 945 l 843 623 q 715 513 843 529 l 715 504 q 843 376 828 504 l 843 220 q 605 0 843 0 l 0 0 l 0 9 q 83 220 83 190 l 83 742 q 0 971 83 786 m 385 760 l 385 595 l 541 595 l 541 760 l 385 760 m 385 412 l 385 211 l 541 211 l 541 412 l 385 412 z "},"Г":{"ha":822,"x_min":0,"x_max":752,"o":"m 0 0 q 83 230 83 185 l 83 752 q 0 963 83 780 l 0 972 l 752 972 l 752 587 l 743 587 q 450 762 480 762 l 376 762 l 376 248 q 468 0 376 203 l 0 0 z "},"Д":{"ha":1040,"x_min":0,"x_max":972,"o":"m 488 760 q 513 557 488 744 q 561 211 531 422 l 395 211 q 437 509 417 370 q 478 760 463 678 l 488 760 m 882 211 q 726 971 816 473 l 250 971 q 85 211 154 467 l 0 211 l 20 -174 l 30 -174 q 323 0 292 0 l 643 0 q 936 -174 673 0 l 945 -174 l 972 211 l 882 211 z "},"Е":{"ha":813,"x_min":0,"x_max":753,"o":"m 0 971 l 744 971 l 744 654 l 472 762 l 372 762 l 372 590 l 563 590 l 563 408 l 372 408 l 372 209 l 472 209 q 753 336 490 209 l 753 0 l 0 0 q 81 236 81 203 l 81 735 q 0 971 81 763 z "},"Ё":{"ha":813,"x_min":0,"x_max":753,"o":"m 316 1080 l 134 1080 l 134 1261 l 316 1261 l 316 1080 m 619 1080 l 437 1080 l 437 1261 l 619 1261 l 619 1080 m 0 971 q 81 735 81 763 l 81 236 q 0 0 81 203 l 753 0 l 753 336 q 472 209 490 209 l 372 209 l 372 408 l 563 408 l 563 590 l 372 590 l 372 762 l 472 762 l 744 654 l 744 971 l 0 971 z "},"Ж":{"ha":1480,"x_min":0,"x_max":1407,"o":"m 1062 971 q 916 704 968 795 q 905 684 910 693 q 853 608 861 608 l 853 726 q 855 749 853 734 q 863 795 858 769 q 907 971 878 867 l 499 971 q 542 804 526 880 q 551 752 547 774 q 553 726 553 734 l 553 608 q 345 971 537 608 l 0 971 l 0 962 q 290 490 290 520 l 178 309 l 0 18 l 0 0 l 336 0 q 348 14 341 5 q 372 47 358 26 l 379 58 q 545 345 435 144 l 553 345 l 553 245 q 551 221 553 237 q 543 174 548 201 q 499 0 528 100 l 907 0 q 864 174 878 100 q 855 222 859 201 q 853 245 853 237 l 853 345 l 862 345 q 905 267 884 304 l 913 251 q 932 219 923 235 q 961 168 947 191 q 976 142 968 154 q 989 119 983 130 q 1071 0 1047 22 l 1407 0 l 1407 18 l 1228 309 l 1116 490 q 1407 962 1116 520 l 1407 971 l 1062 971 z "},"З":{"ha":785,"x_min":0,"x_max":717,"o":"m 0 654 q 290 762 256 762 l 418 762 l 418 590 l 245 590 l 245 408 l 418 408 l 418 218 l 272 218 q 9 345 242 218 l 0 345 l 0 0 l 445 0 q 599 18 526 0 q 717 263 717 54 l 717 336 q 590 499 717 499 l 590 508 l 617 508 q 717 671 717 541 l 717 708 q 709 792 717 756 q 675 878 700 842 q 445 971 610 971 l 0 971 l 0 654 z "},"И":{"ha":1044,"x_min":0,"x_max":989,"o":"m 989 971 q 907 724 907 747 l 907 238 l 989 9 l 989 0 l 632 0 l 632 458 l 623 458 l 366 0 l 83 0 l 83 742 q 0 971 83 781 l 366 971 l 366 522 l 376 522 q 642 971 608 950 l 989 971 z "},"Й":{"ha":1044,"x_min":0,"x_max":989,"o":"m 907 724 q 989 971 907 747 l 642 971 q 376 522 608 950 l 366 522 l 366 971 l 0 971 q 83 742 83 781 l 83 0 l 366 0 l 623 458 l 632 458 l 632 0 l 989 0 l 989 9 l 907 238 l 907 724 m 684 1080 l 304 1080 l 304 1261 l 684 1261 l 684 1080 z "},"К":{"ha":1008,"x_min":0,"x_max":935,"o":"m 0 971 l 381 971 l 381 608 q 590 971 397 608 l 935 971 l 935 962 q 644 490 644 520 l 935 18 l 935 0 l 599 0 q 390 345 554 43 l 381 345 l 381 0 l 0 0 q 81 245 81 221 l 81 726 q 0 971 81 752 z "},"Л":{"ha":991,"x_min":0,"x_max":925,"o":"m 925 0 q 705 971 843 208 l 229 971 q 0 9 83 198 l 0 0 l 348 0 q 360 100 348 7 q 389 314 372 195 q 458 760 433 631 l 467 760 q 568 9 467 724 l 568 0 l 925 0 z "},"М":{"ha":1236,"x_min":0,"x_max":1171,"o":"m 0 971 l 354 971 l 599 563 l 617 563 q 835 971 753 852 l 1171 971 l 1089 744 l 1089 227 l 1171 0 l 808 0 l 808 490 l 799 490 q 590 109 606 111 q 363 490 365 475 l 354 490 l 354 0 l 0 0 l 0 9 q 81 218 81 189 l 81 753 q 0 971 81 768 z "},"Н":{"ha":993,"x_min":0,"x_max":926,"o":"m 0 971 l 372 971 l 372 599 l 553 599 l 553 971 l 926 971 l 926 962 l 844 735 l 844 236 l 926 0 l 553 0 l 553 381 l 372 381 l 372 0 l 0 0 l 0 9 l 81 236 l 81 735 l 0 962 l 0 971 z "},"О":{"ha":854,"x_min":0,"x_max":788,"o":"m 211 971 l 568 971 q 788 751 788 971 l 788 220 q 559 0 788 0 l 256 0 q 18 138 18 0 q 0 275 3 138 l 0 696 q 83 935 13 935 q 211 971 125 971 m 302 760 l 302 211 l 495 211 l 495 760 l 302 760 z "},"П":{"ha":994,"x_min":0,"x_max":926,"o":"m 926 971 l 0 971 l 0 962 l 81 735 l 81 236 l 0 9 l 0 0 l 372 0 l 372 753 l 553 753 l 553 0 l 926 0 l 844 236 l 844 735 l 926 962 l 926 971 z "},"Р":{"ha":895,"x_min":0,"x_max":825,"o":"m 0 971 l 605 971 q 806 852 779 971 q 825 705 825 812 l 825 650 q 751 421 825 477 q 595 385 696 385 l 376 385 l 376 248 q 467 0 376 210 l 0 0 q 83 248 83 223 l 83 742 l 0 971 m 376 760 l 376 559 l 532 559 l 532 760 l 376 760 z "},"С":{"ha":758,"x_min":0,"x_max":690,"o":"m 272 971 l 690 971 l 690 654 q 408 762 423 762 l 300 762 l 300 209 l 408 209 q 690 345 435 209 l 690 0 l 254 0 q 9 118 51 0 q 0 245 0 195 l 0 744 q 100 944 0 899 q 272 971 155 971 z "},"Т":{"ha":902,"x_min":0,"x_max":832,"o":"m 0 969 l 832 969 l 832 622 l 823 622 q 594 759 628 759 l 567 759 l 567 238 q 649 0 567 199 l 192 0 l 192 9 q 265 220 265 203 l 265 759 l 220 759 l 9 622 l 0 622 l 0 969 z "},"У":{"ha":994,"x_min":0,"x_max":926,"o":"m 553 971 l 553 599 l 372 599 l 372 971 l 0 971 l 0 962 l 81 735 l 81 381 l 553 381 l 553 209 l 436 209 q 398 214 427 209 q 319 231 363 220 q 81 304 197 259 l 81 0 l 590 0 q 836 118 793 0 q 844 236 844 188 l 844 236 l 844 735 l 926 962 l 926 971 l 553 971 z "},"Ф":{"ha":1261,"x_min":0,"x_max":1191,"o":"m 898 559 l 742 559 l 742 760 l 898 760 l 898 559 m 449 559 l 293 559 l 293 760 l 449 760 l 449 559 m 1173 852 q 971 971 1145 971 l 220 971 q 18 852 45 971 q 0 705 0 812 l 0 650 q 73 421 0 477 q 229 385 129 385 l 449 385 l 449 248 q 366 0 449 223 l 833 0 q 742 248 742 210 l 742 385 l 962 385 q 1118 421 1062 385 q 1191 650 1191 477 l 1191 705 q 1173 852 1191 812 z "},"Х":{"ha":1069,"x_min":0,"x_max":1006,"o":"m 0 969 l 402 969 l 512 677 l 521 677 l 640 969 l 942 969 q 713 494 942 942 q 932 110 856 155 q 1006 9 932 102 l 1006 0 l 594 0 q 467 283 487 279 q 347 0 467 270 l 27 0 l 27 9 l 283 475 q 73 869 169 804 q 0 969 73 881 z "},"Ц":{"ha":996,"x_min":0,"x_max":926,"o":"m 926 218 l 926 -174 l 917 -174 q 813 -111 865 -146 q 734 -56 777 -87 q 654 0 661 0 l 0 0 l 0 9 l 81 236 l 81 735 l 0 962 l 0 971 l 372 971 l 372 218 l 553 218 l 553 971 l 926 971 l 844 735 l 844 218 l 926 218 z "},"Ч":{"ha":994,"x_min":0,"x_max":926,"o":"m 926 971 l 553 971 l 553 599 l 372 599 l 372 971 l 0 971 l 0 962 l 81 735 l 81 381 l 553 381 l 553 236 l 472 0 l 926 0 l 844 236 l 844 735 l 926 962 l 926 971 z "},"Ш":{"ha":1474,"x_min":0,"x_max":1407,"o":"m 1325 735 l 1407 971 l 1034 971 l 1034 218 l 854 218 l 854 754 q 935 964 854 777 l 935 972 l 471 972 q 553 736 553 764 l 553 235 q 551 218 553 229 l 372 218 l 372 971 l 0 971 l 0 962 l 81 735 l 81 236 l 0 9 l 0 0 l 1407 0 l 1407 9 l 1325 236 l 1325 735 z "},"Щ":{"ha":1476,"x_min":0,"x_max":1411,"o":"m 1407 218 l 1411 -174 l 1402 -174 q 1307 -116 1355 -149 q 1232 -62 1273 -94 q 1143 -1 1154 -4 l 0 -1 l 0 7 l 81 235 l 81 734 l 0 961 l 0 970 l 372 970 l 372 216 l 551 216 q 553 234 553 227 l 553 734 q 471 971 553 762 l 935 971 l 935 962 q 854 753 854 775 l 854 216 l 1034 216 l 1034 970 l 1407 970 l 1325 734 l 1325 218 l 1407 218 z "},"Ъ":{"ha":1075,"x_min":0,"x_max":1007,"o":"m 714 211 l 558 211 l 558 412 l 714 412 l 714 211 m 934 550 q 778 587 878 587 l 558 587 l 558 724 q 650 971 558 761 l 0 971 l 0 624 l 9 624 l 220 761 l 265 761 l 265 229 l 182 0 l 787 0 q 989 119 962 0 q 1007 266 1007 159 l 1007 321 q 934 550 1007 494 z "},"Ы":{"ha":1408,"x_min":0,"x_max":1340,"o":"m 605 1 q 806 121 779 1 q 825 267 825 160 l 825 322 q 751 551 825 496 q 595 588 696 588 l 376 588 l 376 725 q 467 972 376 762 l 0 972 q 83 725 83 749 l 83 231 l 0 1 l 605 1 m 376 414 l 532 414 l 532 212 l 376 212 l 376 414 m 876 974 q 958 737 958 765 l 958 237 q 876 9 958 193 l 876 0 l 1340 0 q 1259 218 1259 199 l 1259 755 q 1340 965 1259 778 l 1340 974 l 876 974 z "},"Ь":{"ha":895,"x_min":0,"x_max":825,"o":"m 83 229 l 83 724 q 0 971 83 748 l 467 971 q 376 724 376 761 l 376 587 l 595 587 q 751 550 696 587 q 825 321 825 494 l 825 266 q 806 119 825 159 q 605 0 779 0 l 0 0 l 83 229 m 532 211 l 532 412 l 376 412 l 376 211 l 532 211 z "},"Э":{"ha":783,"x_min":0,"x_max":717,"o":"m 0 654 q 290 762 256 762 l 418 762 l 418 590 l 245 590 l 245 408 l 418 408 l 418 218 l 272 218 q 9 345 242 218 l 0 345 l 0 0 l 445 0 q 599 18 526 0 q 717 263 717 54 l 717 708 q 709 792 717 756 q 675 878 700 842 q 445 971 610 971 l 0 971 l 0 654 z "},"Ю":{"ha":1406,"x_min":0,"x_max":1340,"o":"m 1047 212 l 854 212 l 854 762 l 1047 762 l 1047 212 m 763 972 q 635 936 677 972 q 552 698 565 936 l 552 578 l 382 578 l 382 755 q 464 965 382 778 l 464 974 l 0 974 q 82 737 82 765 l 82 237 q 0 9 82 193 l 0 0 l 464 0 q 382 218 382 199 l 382 396 l 552 396 l 552 276 q 570 139 555 139 q 808 1 570 1 l 1111 1 q 1340 221 1340 1 l 1340 753 q 1120 972 1340 972 l 763 972 z "},"Я":{"ha":975,"x_min":0,"x_max":907,"o":"m 907 971 q 824 733 824 766 l 824 229 l 907 0 l 531 0 l 531 357 l 522 357 l 320 0 l 0 0 q 229 421 37 83 q 82 568 82 466 l 82 770 q 283 971 82 971 l 907 971 m 375 760 l 375 568 l 531 568 l 531 760 l 375 760 z "},"а":{"ha":730,"x_min":0,"x_max":663,"o":"m 164 695 l 505 695 q 663 0 604 149 l 407 0 l 407 7 l 387 170 l 269 170 q 249 0 249 21 l 0 0 l 0 7 q 164 695 59 142 m 328 545 q 288 302 288 334 l 374 302 q 334 545 334 505 l 328 545 z "},"б":{"ha":652,"x_min":0,"x_max":591,"o":"m 380 295 l 269 295 l 269 151 l 380 151 l 380 295 m 427 420 q 538 394 498 420 q 591 230 591 354 l 591 191 q 577 85 591 114 q 433 0 558 0 l 0 0 l 60 164 l 60 518 q 0 695 60 535 l 584 695 l 584 481 q 370 546 391 546 l 269 546 l 269 420 l 427 420 z "},"в":{"ha":666,"x_min":0,"x_max":604,"o":"m 0 695 l 479 695 q 604 564 604 677 l 604 446 q 511 368 604 378 l 511 361 q 604 269 593 361 l 604 157 q 433 0 604 0 l 0 0 l 0 7 q 59 157 59 136 l 59 531 q 0 695 59 563 m 275 545 l 275 427 l 387 427 l 387 545 l 275 545 m 275 295 l 275 151 l 387 151 l 387 295 l 275 295 z "},"г":{"ha":598,"x_min":0,"x_max":538,"o":"m 0 0 q 59 164 59 132 l 59 538 q 0 688 59 557 l 0 695 l 538 695 l 538 420 l 531 420 q 321 545 343 545 l 269 545 l 269 177 q 334 0 269 144 l 0 0 z "},"д":{"ha":764,"x_min":0,"x_max":696,"o":"m 342 544 q 313 364 332 486 q 283 151 298 262 l 401 151 q 367 399 379 309 q 349 544 349 532 l 342 544 m 696 151 l 677 -125 l 670 -125 q 460 0 482 0 l 231 0 q 22 -125 210 0 l 15 -125 l 0 151 l 61 151 q 179 695 111 334 l 519 695 q 631 151 585 338 l 696 151 z "},"е":{"ha":598,"x_min":0,"x_max":539,"o":"m 0 695 l 533 695 l 533 468 l 338 546 l 267 546 l 267 422 l 403 422 l 403 292 l 267 292 l 267 149 l 338 149 q 539 240 351 149 l 539 0 l 0 0 q 58 169 58 145 l 58 526 q 0 695 58 546 z "},"ё":{"ha":598,"x_min":0,"x_max":539,"o":"m 227 903 l 96 903 l 96 772 l 227 772 l 227 903 m 444 903 l 313 903 l 313 772 l 444 772 l 444 903 m 532 695 l 532 468 l 338 545 l 267 545 l 267 422 l 403 422 l 403 292 l 267 292 l 267 149 l 338 149 q 539 240 351 149 l 539 0 l 0 0 q 58 169 58 145 l 58 526 q 0 695 58 546 l 532 695 z "},"ж":{"ha":1069,"x_min":0,"x_max":1007,"o":"m 1007 695 l 1007 689 q 799 351 799 372 l 879 221 l 1007 13 l 1007 0 l 766 0 q 708 85 749 16 l 704 93 l 699 102 q 688 121 693 111 q 667 157 677 138 l 654 180 l 648 191 q 617 247 633 217 l 610 247 l 610 175 q 612 159 610 170 q 618 125 614 146 q 650 0 629 72 l 357 0 q 389 124 378 71 q 395 158 393 145 q 396 175 396 170 l 396 247 l 390 247 q 271 41 312 103 l 266 33 q 249 10 256 19 q 240 0 244 3 l 0 0 l 0 13 l 127 221 l 208 351 q 0 689 208 372 l 0 695 l 247 695 q 396 435 385 435 l 396 520 q 394 538 396 526 q 388 575 392 553 q 357 695 376 630 l 650 695 q 618 570 628 620 q 612 536 614 551 q 610 520 610 525 l 610 435 q 648 490 616 435 q 656 504 652 498 q 760 695 693 569 l 1007 695 z "},"з":{"ha":579,"x_min":0,"x_max":513,"o":"m 0 695 l 319 695 q 483 629 437 695 q 508 567 501 603 q 513 507 513 541 l 513 481 q 441 363 513 387 l 422 363 l 422 357 q 513 240 513 357 l 513 189 q 429 13 513 39 q 319 0 376 0 l 0 0 l 0 247 l 6 247 q 195 156 174 156 l 299 156 l 299 292 l 175 292 l 175 422 l 299 422 l 299 546 l 208 546 q 0 468 183 546 l 0 695 z "},"и":{"ha":770,"x_min":0,"x_max":708,"o":"m 708 695 q 649 518 649 535 l 649 170 l 708 7 l 708 0 l 452 0 l 452 328 l 446 328 l 262 0 l 59 0 l 59 531 q 0 695 59 559 l 262 695 l 262 374 l 269 374 q 459 695 435 680 l 708 695 z "},"й":{"ha":770,"x_min":0,"x_max":708,"o":"m 648 517 q 708 695 648 534 l 459 695 q 269 374 435 680 l 262 374 l 262 695 l 0 695 q 59 531 59 559 l 59 0 l 262 0 l 446 328 l 452 328 l 452 0 l 708 0 l 708 7 l 648 170 l 648 517 m 490 903 l 218 903 l 218 772 l 490 772 l 490 903 z "},"к":{"ha":732,"x_min":0,"x_max":669,"o":"m 0 695 l 273 695 l 273 435 q 422 695 284 435 l 669 695 l 669 688 q 461 351 461 372 l 669 13 l 669 0 l 429 0 q 279 247 397 31 l 273 247 l 273 0 l 0 0 q 58 176 58 158 l 58 519 q 0 695 58 538 z "},"л":{"ha":768,"x_min":0,"x_max":702,"o":"m 351 474 l 345 474 l 260 7 l 0 7 q 91 208 78 156 q 201 695 186 695 l 487 695 q 578 351 546 450 q 702 7 597 189 l 663 7 q 455 0 595 7 l 351 474 z "},"м":{"ha":904,"x_min":0,"x_max":838,"o":"m 0 695 l 254 695 l 429 403 l 441 403 q 597 695 538 610 l 838 695 l 780 533 l 780 162 l 838 0 l 578 0 l 578 351 l 572 351 q 422 78 433 79 q 260 351 261 340 l 254 351 l 254 0 l 0 0 l 0 7 q 58 156 58 135 l 58 539 q 0 695 58 550 z "},"н":{"ha":732,"x_min":0,"x_max":661,"o":"m 0 693 l 266 693 l 266 427 l 395 427 l 395 693 l 661 693 l 661 686 l 602 525 l 602 168 l 661 0 l 395 0 l 395 272 l 266 272 l 266 0 l 0 0 l 0 7 l 58 168 l 58 525 l 0 686 l 0 693 z "},"о":{"ha":628,"x_min":0,"x_max":564,"o":"m 151 695 l 407 695 q 564 538 564 695 l 564 157 q 400 0 564 0 l 184 0 q 13 98 13 0 q 0 197 2 98 l 0 498 q 59 669 9 669 q 151 695 89 695 m 216 545 l 216 151 l 354 151 l 354 545 l 216 545 z "},"п":{"ha":728,"x_min":0,"x_max":663,"o":"m 663 689 l 604 526 l 604 169 l 663 0 l 396 0 l 396 539 l 267 539 l 267 0 l 0 0 l 0 6 l 58 169 l 58 526 l 0 689 l 0 695 l 663 695 l 663 689 z "},"р":{"ha":654,"x_min":0,"x_max":589,"o":"m 0 693 l 431 693 q 575 608 556 693 q 589 503 589 580 l 589 465 q 536 301 589 340 q 425 275 496 275 l 268 275 l 268 176 q 334 0 268 150 l 0 0 q 59 176 59 159 l 59 530 l 0 693 m 268 543 l 268 399 l 379 399 l 379 543 l 268 543 z "},"с":{"ha":559,"x_min":0,"x_max":494,"o":"m 195 695 l 494 695 l 494 468 q 292 546 303 546 l 214 546 l 214 149 l 292 149 q 494 247 312 149 l 494 0 l 182 0 q 7 85 37 0 q 0 176 0 140 l 0 533 q 71 675 0 644 q 195 695 111 695 z "},"т":{"ha":664,"x_min":0,"x_max":595,"o":"m 0 693 l 595 693 l 595 445 l 589 445 q 425 543 450 543 l 406 543 l 406 170 q 465 0 406 142 l 137 0 l 137 7 q 190 157 190 146 l 190 543 l 157 543 l 7 445 l 0 445 l 0 693 z "},"у":{"ha":730,"x_min":0,"x_max":663,"o":"m 663 695 l 663 689 l 604 526 l 604 169 q 598 85 604 134 q 422 0 568 0 l 58 0 l 58 218 q 229 165 141 185 q 285 153 259 158 q 312 149 306 149 l 396 149 l 396 273 l 58 273 l 58 526 l 0 689 l 0 695 l 267 695 l 267 429 l 396 429 l 396 695 l 663 695 z "},"ф":{"ha":920,"x_min":0,"x_max":852,"o":"m 643 544 l 531 544 l 531 400 l 643 400 l 643 544 m 321 544 l 210 544 l 210 400 l 321 400 l 321 544 m 695 695 q 840 610 820 695 q 852 505 852 582 l 852 465 q 800 301 852 341 q 688 275 760 275 l 531 275 l 531 177 q 597 0 531 151 l 262 0 q 321 177 321 160 l 321 275 l 164 275 q 52 301 92 275 q 0 465 0 341 l 0 505 q 13 610 0 581 q 157 695 33 695 l 695 695 z "},"х":{"ha":785,"x_min":0,"x_max":720,"o":"m 0 693 l 288 693 l 366 484 l 373 484 l 458 693 l 673 693 q 510 353 673 673 q 667 79 612 111 q 720 7 667 73 l 720 0 l 425 0 q 334 203 349 199 q 248 0 334 193 l 20 0 l 20 7 l 203 340 q 52 621 121 575 q 0 693 52 630 z "},"ц":{"ha":731,"x_min":0,"x_max":663,"o":"m 663 156 l 663 -125 l 656 -125 q 582 -79 619 -104 q 526 -39 555 -62 q 468 0 473 0 l 0 0 l 0 6 l 58 169 l 58 526 l 0 689 l 0 695 l 267 695 l 267 156 l 396 156 l 396 695 l 663 695 l 604 526 l 604 156 l 663 156 z "},"ч":{"ha":730,"x_min":0,"x_max":663,"o":"m 663 689 l 604 526 l 604 169 l 663 0 l 338 0 l 396 169 l 396 273 l 58 273 l 58 526 l 0 689 l 0 695 l 267 695 l 267 429 l 396 429 l 396 695 l 663 695 l 663 689 z "},"ш":{"ha":1073,"x_min":0,"x_max":1005,"o":"m 947 169 l 1005 6 l 1005 0 l 0 0 l 0 6 l 58 169 l 58 526 l 0 688 l 0 694 l 266 694 l 266 155 l 394 155 q 395 168 395 163 l 395 526 q 337 695 395 546 l 669 695 l 669 689 q 610 539 610 555 l 610 155 l 739 155 l 739 694 l 1005 694 l 947 526 l 947 169 z "},"щ":{"ha":1074,"x_min":0,"x_max":1010,"o":"m 1007 156 l 1010 -125 l 1004 -125 q 935 -83 970 -106 q 882 -45 911 -66 q 818 -1 827 -3 l 0 -1 l 0 5 l 58 168 l 58 525 l 0 688 l 0 694 l 267 694 l 267 155 l 395 155 q 396 168 396 163 l 396 526 q 337 695 396 546 l 669 695 l 669 689 q 611 539 611 555 l 611 155 l 741 155 l 741 694 l 1007 694 l 949 525 l 949 156 l 1007 156 z "},"ъ":{"ha":789,"x_min":0,"x_max":721,"o":"m 511 295 l 399 295 l 399 151 l 511 151 l 511 295 m 557 420 q 669 394 629 420 q 721 230 721 354 l 721 191 q 708 85 721 114 q 564 0 688 0 l 131 0 l 190 164 l 190 545 l 157 545 l 6 447 l 0 447 l 0 695 l 465 695 q 399 518 399 545 l 399 420 l 557 420 z "},"ы":{"ha":1025,"x_min":0,"x_max":957,"o":"m 0 1 l 59 165 l 59 517 q 0 694 59 535 l 334 694 q 269 517 269 544 l 269 420 l 425 420 q 536 393 496 420 q 589 230 589 354 l 589 191 q 576 86 589 114 q 432 1 556 1 l 0 1 m 269 151 l 380 151 l 380 295 l 269 295 l 269 151 m 957 695 l 957 689 q 899 539 899 555 l 899 156 q 957 0 899 142 l 625 0 l 625 6 q 684 169 684 138 l 684 526 q 625 695 684 546 l 957 695 z "},"ь":{"ha":659,"x_min":0,"x_max":591,"o":"m 433 0 q 577 85 558 0 q 591 191 591 114 l 591 230 q 538 394 591 354 q 427 420 498 420 l 269 420 l 269 518 q 334 695 269 545 l 0 695 q 60 518 60 535 l 60 164 l 0 0 l 433 0 m 269 295 l 380 295 l 380 151 l 269 151 l 269 295 z "},"э":{"ha":581,"x_min":0,"x_max":513,"o":"m 0 695 l 319 695 q 483 629 437 695 q 508 567 501 603 q 513 507 513 541 l 513 189 q 429 13 513 39 q 319 0 376 0 l 0 0 l 0 247 l 6 247 q 195 156 174 156 l 299 156 l 299 292 l 175 292 l 175 422 l 299 422 l 299 546 l 208 546 q 0 468 183 546 l 0 695 z "},"ю":{"ha":1027,"x_min":0,"x_max":957,"o":"m 747 544 l 610 544 l 610 151 l 747 151 l 747 544 m 800 694 q 957 537 957 694 l 957 158 q 793 1 957 1 l 577 1 q 408 99 408 1 q 394 197 396 99 l 394 283 l 273 283 l 273 156 q 332 0 273 142 l 0 0 l 0 6 q 59 169 59 138 l 59 526 q 0 695 59 546 l 332 695 l 332 689 q 273 539 273 555 l 273 412 l 394 412 l 394 498 q 453 668 404 668 q 545 694 484 694 l 800 694 z "},"я":{"ha":717,"x_min":0,"x_max":649,"o":"m 649 695 q 590 525 590 549 l 590 164 l 649 0 l 380 0 l 380 256 l 374 256 l 229 0 l 0 0 q 163 302 27 60 q 59 407 59 334 l 59 551 q 203 695 59 695 l 649 695 m 269 545 l 269 407 l 380 407 l 380 545 l 269 545 z "}}}
